HIERARCHY
ROOT Hips
{
  OFFSET 373.837 88.1643 177.628
  CHANNELS 6 Xposition Yposition Zposition Zrotation Xrotation Yrotation
  JOINT RightUpLeg
  {
    OFFSET -9.27602 -1.55371 -0.0617006
    CHANNELS 3 Zrotation Xrotation Yrotation
    JOINT RightLeg
    {
      OFFSET 0.0569767 -41.8713 0.0644562
      CHANNELS 3 Zrotation Xrotation Yrotation
      JOINT RightFoot
      {
        OFFSET -0.463049 -43.0064 -0.0336586
        CHANNELS 3 Zrotation Xrotation Yrotation
        End Site
        {
          OFFSET 0 -7.69 17.5
        }
      }
    }
  }
  JOINT LeftUpLeg
  {
    OFFSET 9.29312 -1.63815 0.0236341
    CHANNELS 3 Zrotation Xrotation Yrotation
    JOINT LeftLeg
    {
      OFFSET 0.0670365 -41.8776 -0.0578197
      CHANNELS 3 Zrotation Xrotation Yrotation
      JOINT LeftFoot
      {
        OFFSET 0.591956 -40.8352 0.210268
        CHANNELS 3 Zrotation Xrotation Yrotation
        End Site
        {
          OFFSET 0 -7.69 17.5
        }
      }
    }
  }
  JOINT Spine
  {
    OFFSET 0.0229142 14.2949 0.0394214
    CHANNELS 3 Zrotation Xrotation Yrotation
    JOINT Spine1
    {
      OFFSET 0.0328969 9.71943 0.0194292
      CHANNELS 3 Zrotation Xrotation Yrotation
      JOINT Spine2
      {
        OFFSET 0.0292955 10.1244 -0.00440821
        CHANNELS 3 Zrotation Xrotation Yrotation
        JOINT Spine3
        {
          OFFSET 0.024556 9.71184 0.0101567
          CHANNELS 3 Zrotation Xrotation Yrotation
          JOINT Neck
          {
            OFFSET 0.152325 10.3757 0.0664015
            CHANNELS 3 Zrotation Xrotation Yrotation
            JOINT Head
            {
              OFFSET 0.134553 9.4858 0.0499874
              CHANNELS 3 Zrotation Xrotation Yrotation
              End Site
              {
                OFFSET 0 15.95 0
              }
            }
          }
          JOINT RightShoulder
          {
            OFFSET -3.19519 6.89024 -0.0330231
            CHANNELS 3 Zrotation Xrotation Yrotation
            JOINT RightArm
            {
              OFFSET -12.6524 0.0927817 0.0603028
              CHANNELS 3 Zrotation Xrotation Yrotation
              JOINT RightForeArm
              {
                OFFSET -26.4983 -0.141459 0.202928
                CHANNELS 3 Zrotation Xrotation Yrotation
                JOINT RightHand
                {
                  OFFSET -25.9883 -0.0240172 0.0141731
                  CHANNELS 3 Zrotation Xrotation Yrotation
                  JOINT RightHandThumb1
                  {
                    OFFSET -2.48905 0.190105 3.12053
                    CHANNELS 3 Zrotation Xrotation Yrotation
                    JOINT RightHandThumb2
                    {
                      OFFSET -3.68274 0 0
                      CHANNELS 3 Zrotation Xrotation Yrotation
                      JOINT RightHandThumb3
                      {
                        OFFSET -2.55832 0 0
                        CHANNELS 3 Zrotation Xrotation Yrotation
                        End Site
                        {
                          OFFSET -2.194 0 0
                        }
                      }
                    }
                  }
                  JOINT RightInHandIndex
                  {
                    OFFSET -3.22368 0.508421 1.97842
                    CHANNELS 3 Zrotation Xrotation Yrotation
                    JOINT RightHandIndex1
                    {
                      OFFSET -5.21684 -0.091368 0.999158
                      CHANNELS 3 Zrotation Xrotation Yrotation
                      JOINT RightHandIndex2
                      {
                        OFFSET -3.61937 0 0
                        CHANNELS 3 Zrotation Xrotation Yrotation
                        JOINT RightHandIndex3
                        {
                          OFFSET -2.0521 0 0
                          CHANNELS 3 Zrotation Xrotation Yrotation
                          End Site
                          {
                            OFFSET -1.805 0 0
                          }
                        }
                      }
                    }
                  }
                  JOINT RightInHandMiddle
                  {
                    OFFSET -3.38211 0.517263 0.756737
                    CHANNELS 3 Zrotation Xrotation Yrotation
                    JOINT RightHandMiddle1
                    {
                      OFFSET -5.17411 -0.084 0.313895
                      CHANNELS 3 Zrotation Xrotation Yrotation
                      JOINT RightHandMiddle2
                      {
                        OFFSET -3.94947 0 0
                        CHANNELS 3 Zrotation Xrotation Yrotation
                        JOINT RightHandMiddle3
                        {
                          OFFSET -2.47579 0 0
                          CHANNELS 3 Zrotation Xrotation Yrotation
                          End Site
                          {
                            OFFSET -1.975 0 0
                          }
                        }
                      }
                    }
                  }
                  JOINT RightInHandRing
                  {
                    OFFSET -3.36516 0.537895 -0.128947
                    CHANNELS 3 Zrotation Xrotation Yrotation
                    JOINT RightHandRing1
                    {
                      OFFSET -4.63474 -0.022105 -0.478947
                      CHANNELS 3 Zrotation Xrotation Yrotation
                      JOINT RightHandRing2
                      {
                        OFFSET -3.44238 0 0
                        CHANNELS 3 Zrotation Xrotation Yrotation
                        JOINT RightHandRing3
                        {
                          OFFSET -2.3881 0 0
                          CHANNELS 3 Zrotation Xrotation Yrotation
                          End Site
                          {
                            OFFSET -1.857 0 0
                          }
                        }
                      }
                    }
                  }
                  JOINT RightInHandPinky
                  {
                    OFFSET -3.16105 0.469368 -1.20179
                    CHANNELS 3 Zrotation Xrotation Yrotation
                    JOINT RightHandPinky1
                    {
                      OFFSET -4.14105 -0.022105 -1.09053
                      CHANNELS 3 Zrotation Xrotation Yrotation
                      JOINT RightHandPinky2
                      {
                        OFFSET -2.75653 0 0
                        CHANNELS 3 Zrotation Xrotation Yrotation
                        JOINT RightHandPinky3
                        {
                          OFFSET -1.74189 0 0
                          CHANNELS 3 Zrotation Xrotation Yrotation
                          End Site
                          {
                            OFFSET -1.645 0 0
                          }
                        }
                      }
                    }
                  }
                }
              }
            }
          }
          JOINT LeftShoulder
          {
            OFFSET 3.28609 6.87948 -0.0751467
            CHANNELS 3 Zrotation Xrotation Yrotation
            JOINT LeftArm
            {
              OFFSET 12.831 -0.0663252 -0.1321
              CHANNELS 3 Zrotation Xrotation Yrotation
              JOINT LeftForeArm
              {
                OFFSET 26.5106 -0.082189 -0.0903645
                CHANNELS 3 Zrotation Xrotation Yrotation
                JOINT LeftHand
                {
                  OFFSET 25.9965 -0.0307163 -0.0535747
                  CHANNELS 3 Zrotation Xrotation Yrotation
                  JOINT LeftHandThumb1
                  {
                    OFFSET 2.48905 0.190105 3.12053
                    CHANNELS 3 Zrotation Xrotation Yrotation
                    JOINT LeftHandThumb2
                    {
                      OFFSET 3.68274 0 0
                      CHANNELS 3 Zrotation Xrotation Yrotation
                      JOINT LeftHandThumb3
                      {
                        OFFSET 2.55832 0 0
                        CHANNELS 3 Zrotation Xrotation Yrotation
                        End Site
                        {
                          OFFSET 2.194 0 0
                        }
                      }
                    }
                  }
                  JOINT LeftInHandIndex
                  {
                    OFFSET 3.22368 0.508421 1.97842
                    CHANNELS 3 Zrotation Xrotation Yrotation
                    JOINT LeftHandIndex1
                    {
                      OFFSET 5.21684 -0.091368 0.999158
                      CHANNELS 3 Zrotation Xrotation Yrotation
                      JOINT LeftHandIndex2
                      {
                        OFFSET 3.61937 0 0
                        CHANNELS 3 Zrotation Xrotation Yrotation
                        JOINT LeftHandIndex3
                        {
                          OFFSET 2.0521 0 0
                          CHANNELS 3 Zrotation Xrotation Yrotation
                          End Site
                          {
                            OFFSET 1.805 0 0
                          }
                        }
                      }
                    }
                  }
                  JOINT LeftInHandMiddle
                  {
                    OFFSET 3.38211 0.517263 0.756737
                    CHANNELS 3 Zrotation Xrotation Yrotation
                    JOINT LeftHandMiddle1
                    {
                      OFFSET 5.17411 -0.084 0.313895
                      CHANNELS 3 Zrotation Xrotation Yrotation
                      JOINT LeftHandMiddle2
                      {
                        OFFSET 3.94947 0 0
                        CHANNELS 3 Zrotation Xrotation Yrotation
                        JOINT LeftHandMiddle3
                        {
                          OFFSET 2.47579 0 0
                          CHANNELS 3 Zrotation Xrotation Yrotation
                          End Site
                          {
                            OFFSET 1.975 0 0
                          }
                        }
                      }
                    }
                  }
                  JOINT LeftInHandRing
                  {
                    OFFSET 3.36516 0.537895 -0.128947
                    CHANNELS 3 Zrotation Xrotation Yrotation
                    JOINT LeftHandRing1
                    {
                      OFFSET 4.63474 -0.022105 -0.478947
                      CHANNELS 3 Zrotation Xrotation Yrotation
                      JOINT LeftHandRing2
                      {
                        OFFSET 3.44238 0 0
                        CHANNELS 3 Zrotation Xrotation Yrotation
                        JOINT LeftHandRing3
                        {
                          OFFSET 2.3881 0 0
                          CHANNELS 3 Zrotation Xrotation Yrotation
                          End Site
                          {
                            OFFSET 1.857 0 0
                          }
                        }
                      }
                    }
                  }
                  JOINT LeftInHandPinky
                  {
                    OFFSET 3.16105 0.469368 -1.20179
                    CHANNELS 3 Zrotation Xrotation Yrotation
                    JOINT LeftHandPinky1
                    {
                      OFFSET 4.14105 -0.022105 -1.09053
                      CHANNELS 3 Zrotation Xrotation Yrotation
                      JOINT LeftHandPinky2
                      {
                        OFFSET 2.75653 0 0
                        CHANNELS 3 Zrotation Xrotation Yrotation
                        JOINT LeftHandPinky3
                        {
                          OFFSET 1.74189 0 0
                          CHANNELS 3 Zrotation Xrotation Yrotation
                          End Site
                          {
                            OFFSET 1.645 0 0
                          }
                        }
                      }
                    }
                  }
                }
              }
            }
          }
        }
      }
    }
  }
}
MOTION
Frames: 2
Frame Time: 0.00833333
3.510701999999999316e+03 8.774860000000001037e+01 1.801810000000000116e+02 2.284880000000000422e+01 -1.116939999999999600e+00 -1.446370000000000005e+02 3.590100000000000335e+01 -3.517400000000000659e+01 2.937700000000000244e+01 -5.383020000000000138e+00 1.274809999999999910e+01 9.476180000000002934e-01 1.203539999999999743e+01 1.710460000000000136e+01 5.787659999999999627e+01 3.222690000000000765e+01 -1.132109999999999594e+01 2.135650000000000048e+01 -2.575789999999999580e+01 4.157330000000000325e+01 2.549470000000000169e+01 9.011799999999997368e+00 -1.967419999999999902e+01 2.352370000000000516e+01 -2.670599999999999863e+00 -3.759109999999999729e+00 -9.679460000000000619e+00 -6.085260000000000113e-01 -1.017700000000000049e+00 -2.380459999999999354e+00 -1.030440000000000023e+00 -1.704949999999999966e+00 -3.912690000000000445e+00 -7.475240000000000773e-01 -4.949679999999999636e-01 2.734560000000000546e+00 6.128130000000000521e-01 -8.546119999999998385e+00 4.395729999999998938e+01 -1.193229999999999791e+01 1.070270000000000010e+01 2.635559999999999548e+01 -2.222989999999999355e+00 1.539429999999999410e+00 4.743920000000001025e+00 3.405330000000000723e+01 -6.686619999999999209e+01 3.664670000000000982e+00 3.883960000000000434e+01 -7.743679999999997676e+00 1.164219999999999970e+02 -1.823480000000000878e+00 -3.076030000000000086e+01 -4.820400000000000240e+00 2.818400000000000105e+01 1.072940000000000005e+01 1.915919999999999845e+01 6.894189999999999324e-15 -3.006619999999999540e-15 -1.000000000000000000e+01 -7.246330000000001926e-15 2.236329999999999008e-16 -1.000000000000000000e+01 2.782989999999999888e-15 -6.361109999999998952e-15 -6.361110000000000530e-15 1.998179999999999978e+01 8.718970000000000331e-01 2.396399999999999864e+00 2.400000000000000000e+01 -6.361109999999999741e-15 1.590280000000000274e-15 2.000000000000000000e+01 7.156249999999999484e-15 3.975690000000000198e-14 2.782989999999999888e-15 -6.361109999999998952e-15 -6.361110000000000530e-15 2.000000000000000000e+01 -3.180550000000000771e-15 -2.882380000000000109e-15 2.400000000000000000e+01 -3.180549999999999193e-15 -7.951389999999995282e-16 2.000000000000000000e+01 4.770830000000000256e-15 3.101040000000000234e-14 2.782989999999999888e-15 -6.361109999999998952e-15 -6.361110000000000530e-15 1.997479999999999833e+01 -1.025649999999999951e+00 -2.819380000000000219e+00 2.400000000000000000e+01 -1.590279999999999880e-15 -2.981769999999999146e-15 2.000000000000000000e+01 1.113190000000000089e-14 2.862499999999999793e-14 2.782989999999999888e-15 -6.361109999999998952e-15 -6.361110000000000530e-15 1.978150000000000119e+01 -3.009479999999999933e+00 -8.305149999999999366e+00 2.400000000000000000e+01 -3.180550000000000376e-15 -3.578119999999999853e-15 2.000000000000000000e+01 0.000000000000000000e+00 8.348960000000001464e-15 7.227880000000000749e+00 -2.551370000000000005e+01 -5.533859999999999957e+01 -2.660089999999999932e+01 2.329650000000000176e+01 -1.019599999999999937e+02 3.771960000000000690e+01 -5.859009999999997831e+00 -3.369409999999999172e+01 -2.353130000000000166e+01 -1.452199999999999847e+01 -1.214079999999999870e+01 -2.818400000000000105e+01 1.072940000000000005e+01 -1.915919999999999845e+01 7.177170000000000620e-15 -6.361109999999999741e-15 1.000000000000000000e+01 1.267300000000000102e-15 -3.180550000000000376e-15 1.000000000000000000e+01 2.658740000000000285e-15 -7.951390000000000212e-16 -1.590279999999999880e-15 -1.998179999999999978e+01 8.718970000000000331e-01 -2.396399999999999864e+00 -2.400000000000000000e+01 -2.782989999999999888e-15 1.908330000000000147e-14 -2.000000000000000000e+01 -1.590280000000000077e-15 7.156250000000001061e-15 2.658740000000000285e-15 -7.951390000000000212e-16 -1.590279999999999880e-15 -2.000000000000000000e+01 -1.391490000000000055e-15 7.156249999999999484e-15 -2.400000000000000000e+01 -6.758679999999999612e-15 7.951389999999999226e-16 -2.000000000000000000e+01 7.951389999999997254e-16 -1.590279999999999880e-15 2.658740000000000285e-15 -7.951390000000000212e-16 -1.590279999999999880e-15 -1.997479999999999833e+01 -1.025649999999999951e+00 2.819380000000000219e+00 -2.400000000000000000e+01 1.391489999999999661e-15 1.431250000000000212e-14 -2.000000000000000000e+01 -5.317489999999999558e-15 6.758679999999998824e-15 2.658740000000000285e-15 -7.951390000000000212e-16 -1.590279999999999880e-15 -1.978150000000000119e+01 -3.009479999999999933e+00 8.305149999999999366e+00 -2.400000000000000000e+01 0.000000000000000000e+00 1.152949999999999930e-14 -2.000000000000000000e+01 -7.156249999999999484e-15 6.261719999999999520e-15
3.510738000000000284e+03 8.775130000000000052e+01 1.802179999999999893e+02 2.285880000000000223e+01 -1.102389999999999759e+00 -1.446730000000000302e+02 3.593379999999999086e+01 -3.519350000000000023e+01 2.935869999999999891e+01 -5.357359999999999012e+00 1.276459999999999972e+01 1.020229999999999748e+00 1.189990000000000059e+01 1.707610000000000383e+01 5.788880000000000337e+01 3.223360000000000269e+01 -1.133000000000000007e+01 2.138769999999999882e+01 -2.571329999999999671e+01 4.156579999999999586e+01 2.547080000000000410e+01 9.094520000000001048e+00 -1.957489999999999952e+01 2.356550000000000367e+01 -2.716359999999999442e+00 -3.785140000000000171e+00 -9.713560000000001082e+00 -6.193450000000000344e-01 -1.026170000000000471e+00 -2.387999999999999901e+00 -1.048560000000000159e+00 -1.719519999999999715e+00 -3.924430000000000085e+00 -7.428080000000000238e-01 -4.875880000000000214e-01 2.734960000000000058e+00 5.976339999999998875e-01 -8.442090000000000316e+00 4.393889999999998963e+01 -1.186560000000000414e+01 1.070860000000000056e+01 2.637960000000000349e+01 -2.234040000000000248e+00 1.595410000000000217e+00 4.689569999999998018e+00 3.387330000000000041e+01 -6.692590000000001282e+01 3.409239999999996940e+00 3.850189999999999202e+01 -7.736319999999999197e+00 1.166039999999999992e+02 -1.577820000000000000e+00 -2.997800000000000153e+01 -4.428919999999999746e+00 2.818400000000000105e+01 1.072940000000000005e+01 1.915919999999999845e+01 1.186300000000000206e-14 5.963540000000000856e-16 -1.000000000000000000e+01 4.417660000000000081e-15 -1.590280000000000274e-15 -1.000000000000000000e+01 4.969620000000001264e-16 -4.770830000000001045e-15 -7.156249999999999484e-15 1.998179999999999978e+01 8.718970000000000331e-01 2.396399999999999864e+00 2.400000000000000000e+01 -5.565969999999999999e-15 7.951389999999999226e-16 2.000000000000000000e+01 8.746530000000000547e-15 4.134720000000000102e-14 4.969620000000001264e-16 -4.770830000000001045e-15 -7.156249999999999484e-15 2.000000000000000000e+01 -3.180550000000000376e-15 -3.130860000000000155e-15 2.400000000000000000e+01 -3.180549999999999982e-15 -3.578119999999999853e-15 2.000000000000000000e+01 9.541659999999998934e-15 2.703469999999999890e-14 4.969620000000001264e-16 -4.770830000000001045e-15 -7.156249999999999484e-15 1.997479999999999833e+01 -1.025649999999999951e+00 -2.819380000000000219e+00 2.400000000000000000e+01 0.000000000000000000e+00 -3.975690000000000513e-15 2.000000000000000000e+01 9.541660000000000512e-15 2.942009999999999699e-14 4.969620000000001264e-16 -4.770830000000001045e-15 -7.156249999999999484e-15 1.978150000000000119e+01 -3.009479999999999933e+00 -8.305149999999999366e+00 2.400000000000000000e+01 -4.770830000000000256e-15 -3.975690000000000513e-16 2.000000000000000000e+01 -3.180549999999999193e-15 7.951390000000000804e-15 7.364080000000001291e+00 -2.544610000000000127e+01 -5.524590000000000600e+01 -2.657520000000000238e+01 2.319470000000000098e+01 -1.020960000000000178e+02 3.763669999999999050e+01 -6.015789999999999083e+00 -3.395249999999998636e+01 -2.355020000000000024e+01 -1.453610000000000113e+01 -1.229019999999999868e+01 -2.818400000000000105e+01 1.072940000000000005e+01 -1.915919999999999845e+01 1.491520000000000223e-15 -1.590280000000000274e-15 1.000000000000000000e+01 -2.904470000000000040e-15 1.590279999999999880e-15 1.000000000000000000e+01 -2.236330000000000586e-15 -3.975689999999999527e-16 0.000000000000000000e+00 -1.998179999999999978e+01 8.718970000000000331e-01 -2.396399999999999864e+00 -2.400000000000000000e+01 -3.180549999999999982e-15 1.828819999999999926e-14 -2.000000000000000000e+01 -1.590279999999999880e-15 5.565970000000000787e-15 -2.236330000000000586e-15 -3.975689999999999527e-16 0.000000000000000000e+00 -2.000000000000000000e+01 -1.590280000000000077e-15 3.975689999999998936e-15 -2.400000000000000000e+01 -5.963540000000000659e-15 -7.951389999999999226e-16 -2.000000000000000000e+01 0.000000000000000000e+00 -3.975689999999999725e-15 -2.236330000000000586e-15 -3.975689999999999527e-16 0.000000000000000000e+00 -1.997479999999999833e+01 -1.025649999999999951e+00 2.819380000000000219e+00 -2.400000000000000000e+01 1.789059999999999927e-15 1.471009999999999896e-14 -2.000000000000000000e+01 -5.093859999999999512e-15 5.565969999999999210e-15 -2.236330000000000586e-15 -3.975689999999999527e-16 0.000000000000000000e+00 -1.978150000000000119e+01 -3.009479999999999933e+00 8.305149999999999366e+00 -2.400000000000000000e+01 -7.951389999999999226e-16 1.152949999999999930e-14 -2.000000000000000000e+01 -5.565969999999999999e-15 6.013239999999999080e-15
